# xmcd
#
# Track frame offsets: 
#        183
#        15698
#        29843
#        46803
#        62465
#        78065
#        93833
#        107055
#        125808
#        141123
#        156600
#        171683
#        187593
#        211753
#        229583
#        246740
#
# Disc length: 3557 seconds
#
# Revision: 4
# Processed by: cddbd v1.5.2PL0 Copyright (c) Steve Scherf et al.
# Submitted via: ExactAudioCopyFreeDBPlugin 1.0
#
DISCID=da0de310
DTITLE=Diana Ross - All The Great Love Songs
DYEAR=1984
DGENRE=Soul
TTITLE0=Youre All I Need To Get By
TTITLE1=These Things Will Keep Me Loving You
TTITLE2=Im Still Waiting
TTITLE3=My Man
TTITLE4=Touch Me In The Morning
TTITLE5=All Of My Life
TTITLE6=Love Me
TTITLE7=After You
TTITLE8=Theme From Mahogony (Do You Know)
TTITLE9=Sorry Doesn't Always Make It Right
TTITLE10=I Thought It Took A Little Time
TTITLE11=All Night Lover
TTITLE12=Sparkle
TTITLE13=Its My Turn
TTITLE14=Cryin My Heart Out For You
TTITLE15=Endless Love
EXTD=
EXTT0=
EXTT1=
EXTT2=
EXTT3=
EXTT4=
EXTT5=
EXTT6=
EXTT7=
EXTT8=
EXTT9=
EXTT10=
EXTT11=
EXTT12=
EXTT13=
EXTT14=
EXTT15=
PLAYORDER=
